<svg width="384" height="119" viewBox="0 0 384 119" fill="none" xmlns="http://www.w3.org/2000/svg">
<path d="M27.4044 70.1941C24.6501 72.9481 24.6501 77.4137 27.4044 80.1677C30.1587 82.922 34.624 82.922 37.3782 80.1677L27.4044 70.1941ZM71.5558 45.9902C74.3098 43.2362 74.3098 38.7706 71.5558 36.0166C68.8015 33.2623 64.3362 33.2623 61.5819 36.0166L71.5558 45.9902ZM50.0001 93.5788L45.0131 88.5919C37.9424 95.6626 26.4786 95.6626 19.4079 88.5919L14.421 93.5788L9.43434 98.5658C22.0133 111.145 42.4078 111.145 54.987 98.5658L50.0001 93.5788ZM14.421 93.5788L19.4079 88.5919C12.3373 81.5212 12.3373 70.0577 19.4079 62.987L14.421 58.0001L9.43434 53.0131C-3.14478 65.5921 -3.14478 85.9868 9.43434 98.5658L14.421 93.5788ZM50.0001 93.5788L54.987 98.5658L78.3506 75.2022L73.3636 70.2153L68.3767 65.2283L45.0131 88.5919L50.0001 93.5788ZM14.421 58.0001L19.4079 62.987L54.987 27.4079L50.0001 22.421L45.0131 17.4343L9.43434 53.0131L14.421 58.0001ZM50.0001 22.421L54.987 27.4079C62.0577 20.3373 73.5212 20.3373 80.5919 27.4079L85.5788 22.421L90.5658 17.4343C77.9868 4.85519 57.5921 4.85525 45.0131 17.4343L50.0001 22.421ZM85.5788 22.421L80.5919 27.4079C87.6626 34.4786 87.6626 45.9425 80.5919 53.0131L85.5788 58.0001L90.5658 62.987C103.145 50.4078 103.145 30.0133 90.5658 17.4343L85.5788 22.421ZM32.3913 75.1808L37.3782 80.1677L71.5558 45.9902L66.5688 41.0033L61.5819 36.0166L27.4044 70.1941L32.3913 75.1808Z" fill="white"/>
<path d="M181.344 49.7852C180.367 42.5586 175.191 37.9688 167.281 37.9688C156.832 37.9688 150.484 45.8789 150.484 59.6484C150.484 73.9062 157.027 81.3281 167.184 81.3281C174.801 81.3281 180.074 77.2266 181.344 70.293L198.141 70.3906C196.773 82.9883 186.031 95.9766 166.891 95.9766C147.75 95.9766 133.492 82.8906 133.492 59.6484C133.492 36.3086 148.043 23.3203 166.891 23.3203C183.883 23.3203 196.383 32.8906 198.141 49.7852H181.344ZM224.215 24.2969V95H207.711V24.2969H224.215ZM234.762 95V41.9727H251.266V95H234.762ZM243.062 35.625C238.375 35.625 234.566 32.1094 234.566 27.7148C234.566 23.3203 238.375 19.8047 243.062 19.8047C247.75 19.8047 251.656 23.3203 251.656 27.7148C251.656 32.1094 247.75 35.625 243.062 35.625ZM261.812 114.922V41.9727H278.121V51.0547H278.707C280.66 46.2695 285.25 41.2891 293.648 41.2891C304.879 41.2891 314.84 49.8828 314.84 68.5352C314.84 86.5039 305.367 95.7812 293.648 95.7812C285.445 95.7812 280.758 91.1914 278.707 86.4062H278.316V114.922H261.812ZM277.926 68.4375C277.926 77.2266 281.637 82.8906 287.984 82.8906C294.43 82.8906 297.945 77.2266 297.945 68.4375C297.945 59.8438 294.43 54.1797 287.984 54.1797C281.637 54.1797 277.926 59.6484 277.926 68.4375ZM323.531 95V41.9727H340.035V95H323.531ZM331.832 35.625C327.145 35.625 323.336 32.1094 323.336 27.7148C323.336 23.3203 327.145 19.8047 331.832 19.8047C336.52 19.8047 340.426 23.3203 340.426 27.7148C340.426 32.1094 336.52 35.625 331.832 35.625ZM380.172 41.9727V54.082H370.504V78.3984C370.504 81.7188 372.164 82.6953 374.996 82.793C376.363 82.8906 379 82.6953 380.855 82.5977V95.1953C379.293 95.3906 376.559 95.7812 372.652 95.7812C361.031 95.7812 354 90.9961 354.098 80.2539V54.082H346.969V41.9727H354.098V29.2773H370.504V41.9727H380.172Z" fill="white"/>
</svg>
