<svg width="512" height="512" viewBox="0 0 512 512" fill="none" xmlns="http://www.w3.org/2000/svg">
<path d="M256.917 387.416L238.532 369.031L238.532 369.031L256.917 387.416ZM125.75 256.25L144.135 274.635L144.135 274.635L125.75 256.25ZM256.917 125.083L238.532 106.699L238.532 106.699L256.917 125.083ZM173.615 301.205C163.461 311.358 163.461 327.821 173.615 337.974C183.769 348.128 200.231 348.128 210.385 337.974L173.615 301.205ZM336.385 211.974C346.538 201.821 346.538 185.358 336.385 175.205C326.231 165.051 309.769 165.051 299.615 175.205L336.385 211.974ZM256.917 387.416L238.532 369.031C212.465 395.098 170.202 395.098 144.135 369.031L125.75 387.416L107.366 405.801C153.74 452.175 228.927 452.175 275.302 405.801L256.917 387.416ZM125.75 387.416L144.135 369.031C118.068 342.964 118.068 300.702 144.135 274.635L125.75 256.25L107.366 237.865C60.9914 284.239 60.9914 359.427 107.366 405.801L125.75 387.416ZM256.917 387.416L275.302 405.801L361.435 319.668L343.05 301.283L324.665 282.898L238.532 369.031L256.917 387.416ZM125.75 256.25L144.135 274.635L275.302 143.468L256.917 125.083L238.532 106.699L107.366 237.865L125.75 256.25ZM256.917 125.083L275.302 143.468C301.369 117.401 343.631 117.401 369.698 143.468L388.083 125.083L406.468 106.699C360.094 60.3243 284.906 60.3245 238.532 106.699L256.917 125.083ZM388.083 125.083L369.698 143.468C395.765 169.535 395.765 211.798 369.698 237.865L388.083 256.25L406.468 274.635C452.842 228.26 452.842 153.073 406.468 106.699L388.083 125.083ZM192 319.589L210.385 337.974L336.385 211.974L318 193.589L299.615 175.205L173.615 301.205L192 319.589Z" fill="white"/>
</svg>
