<?xml version="1.0" standalone="no"?>
<!DOCTYPE svg PUBLIC "-//W3C//DTD SVG 20010904//EN"
 "http://www.w3.org/TR/2001/REC-SVG-20010904/DTD/svg10.dtd">
<svg version="1.0" xmlns="http://www.w3.org/2000/svg"
 width="900.000000pt" height="900.000000pt" viewBox="0 0 900.000000 900.000000"
 preserveAspectRatio="xMidYMid meet">

<g transform="translate(0.000000,900.000000) scale(0.100000,-0.100000)"
fill="#000000" stroke="none">
<path d="M4450 6905 c-115 -42 -373 -136 -455 -165 -44 -16 -210 -76 -370
-135 -159 -59 -333 -122 -385 -140 -52 -18 -176 -63 -275 -100 -99 -37 -216
-80 -260 -95 -76 -28 -183 -67 -480 -174 -71 -26 -140 -54 -153 -62 l-22 -14
2 -1983 c3 -1911 4 -1982 21 -1985 10 -2 62 12 115 32 53 20 160 58 237 86 77
28 169 61 205 75 36 13 164 60 285 103 121 44 238 87 260 96 22 8 121 44 220
80 163 58 381 138 755 278 178 66 260 104 260 119 0 7 13 49 29 93 56 160 81
244 81 276 0 19 3 30 8 26 4 -4 9 -285 12 -623 4 -538 7 -617 20 -625 11 -7
52 3 145 37 256 94 431 157 510 185 44 15 168 61 275 100 107 40 231 85 275
101 538 191 1165 422 1205 442 l25 13 0 1979 c0 1840 -1 1980 -17 1983 -9 2
-148 -45 -310 -104 -161 -59 -351 -128 -423 -154 -71 -26 -188 -68 -260 -95
-71 -26 -184 -67 -250 -91 -66 -24 -183 -66 -260 -94 -77 -28 -176 -64 -220
-80 -44 -15 -150 -54 -235 -85 -256 -95 -453 -165 -462 -165 -4 0 -8 195 -8
433 0 421 -2 458 -29 457 -4 -1 -35 -12 -71 -25z m1438 -2381 l-3 -1156 -104
-39 c-57 -21 -108 -39 -112 -39 -5 0 -9 513 -9 1154 0 893 3 1157 12 1162 23
15 183 73 201 74 16 0 17 -60 15 -1156z m-1348 972 c0 -109 -2 -125 -17 -131
-19 -7 -296 -110 -473 -175 -166 -61 -365 -135 -485 -180 -124 -46 -257 -96
-455 -168 -74 -28 -172 -64 -217 -81 l-83 -30 0 124 c0 121 1 126 23 135 12 5
84 32 160 60 75 27 197 72 270 99 72 27 249 92 392 145 143 53 301 112 350
130 50 19 171 65 270 101 99 36 196 72 215 80 19 8 38 14 43 14 4 1 7 -55 7
-123z m-7 -1417 c-4 -4 -60 -26 -123 -48 -63 -22 -196 -70 -295 -106 -99 -36
-228 -84 -287 -106 -230 -84 -328 -120 -473 -174 -82 -31 -186 -69 -230 -85
-44 -15 -128 -47 -187 -69 -59 -23 -112 -41 -118 -41 -7 0 -10 39 -8 122 l3
123 180 67 c99 37 243 91 320 119 361 134 434 161 485 180 30 12 208 78 395
148 l340 127 3 -125 c1 -68 -1 -128 -5 -132z"/>
</g>
</svg>
