<?xml version="1.0" standalone="no"?>
<!DOCTYPE svg PUBLIC "-//W3C//DTD SVG 20010904//EN"
 "http://www.w3.org/TR/2001/REC-SVG-20010904/DTD/svg10.dtd">
<svg version="1.0" xmlns="http://www.w3.org/2000/svg"
 width="225.000000pt" height="225.000000pt" viewBox="0 0 225.000000 225.000000"
 preserveAspectRatio="xMidYMid meet">

<g transform="translate(0.000000,225.000000) scale(0.100000,-0.100000)"
fill="#000000" stroke="none">
<path d="M0 1125 l0 -1125 1125 0 1125 0 0 1125 0 1125 -1125 0 -1125 0 0
-1125z m973 382 c112 -51 207 -167 238 -291 16 -64 6 -178 -21 -249 -31 -81
-121 -177 -208 -219 -63 -31 -73 -33 -177 -33 -102 0 -115 2 -176 31 -84 40
-158 114 -201 201 -31 65 -33 73 -32 178 0 92 4 118 22 159 52 113 142 198
254 238 80 28 223 21 301 -15z m545 -1 c97 -51 154 -189 155 -376 1 -123 -14
-193 -58 -280 -27 -52 -83 -107 -120 -116 -84 -21 -174 71 -216 221 -19 66
-18 274 0 340 48 171 148 259 239 211z m290 -38 c5 -7 18 -40 29 -73 27 -88
26 -451 -1 -542 -23 -79 -41 -96 -66 -65 -68 83 -71 568 -4 670 16 25 27 28
42 10z"/>
</g>
</svg>
